<?xml version="1.0" standalone="no"?>
<!DOCTYPE svg PUBLIC "-//W3C//DTD SVG 20010904//EN"
 "http://www.w3.org/TR/2001/REC-SVG-20010904/DTD/svg10.dtd">
<svg version="1.0" xmlns="http://www.w3.org/2000/svg"
 width="2798.000000pt" height="1036.000000pt" viewBox="0 0 2798.000000 1036.000000"
 preserveAspectRatio="xMidYMid meet">

<g transform="translate(0.000000,1036.000000) scale(0.100000,-0.100000)"
fill="#000000" stroke="none">
<path d="M0 5555 c0 -2643 3 -4805 6 -4805 4 0 16 10 28 23 82 86 197 158 291
182 102 25 204 61 287 99 62 28 110 49 273 116 11 5 47 18 80 28 33 11 82 30
109 42 48 20 196 59 361 95 77 17 161 40 325 90 41 13 109 33 150 45 41 12
116 35 165 52 109 36 187 54 285 68 91 12 176 33 250 60 55 20 110 35 250 65
68 14 135 31 230 56 19 5 64 14 100 19 36 6 108 18 160 26 52 9 122 19 155 24
83 12 254 50 360 80 37 10 103 36 220 85 98 41 204 77 275 93 81 19 304 73
341 82 20 6 78 14 130 20 123 13 216 27 227 34 12 7 135 31 287 56 102 16 156
32 250 70 215 88 278 110 390 135 33 7 96 30 140 50 l80 38 220 9 c121 5 353
13 515 16 l295 7 0 355 0 355 29 55 c76 145 172 235 335 315 64 32 135 70 158
86 48 33 251 136 333 169 30 12 66 26 80 32 44 18 193 65 255 80 33 9 96 25
140 36 140 36 327 93 435 135 240 91 283 105 395 131 39 8 100 22 137 31 37 8
79 15 93 15 69 0 231 61 296 112 20 15 42 28 49 28 7 0 33 11 59 24 42 23 60
25 226 30 99 2 198 9 220 15 234 62 417 98 585 116 85 9 137 27 240 82 168 91
397 201 490 236 52 19 165 61 250 92 85 31 200 74 255 96 184 74 229 90 320
114 50 13 115 31 145 40 30 9 98 27 150 41 150 40 464 152 605 215 196 89 294
128 380 152 50 14 126 39 170 57 110 44 113 45 175 63 109 30 271 47 459 47
202 0 217 -3 396 -70 55 -20 132 -45 170 -55 39 -10 91 -29 117 -41 26 -13 62
-24 81 -24 39 0 43 6 76 117 12 40 40 100 63 135 55 83 175 200 275 268 113
76 203 155 249 219 40 55 130 131 155 131 8 0 91 17 184 39 94 22 206 48 250
57 44 9 125 32 180 51 55 19 120 39 145 44 24 5 69 18 100 29 56 19 197 49
325 69 156 23 333 51 380 60 234 45 603 69 1042 70 l322 1 3 23 c3 19 10 22
58 25 31 2 153 -7 270 -18 118 -12 280 -25 360 -30 80 -5 172 -14 205 -19 94
-16 320 -32 555 -41 226 -8 233 -9 430 -73 58 -19 119 -37 135 -40 60 -12 162
-37 255 -61 52 -14 140 -37 195 -51 159 -40 178 -46 210 -60 17 -7 39 -15 50
-18 29 -8 154 -55 192 -72 17 -8 34 -15 38 -15 14 0 223 -105 272 -137 31 -20
64 -54 81 -81 16 -26 51 -73 78 -104 46 -55 49 -57 71 -43 36 24 56 18 103
-31 45 -46 176 -153 307 -249 169 -124 286 -273 355 -450 22 -57 23 -73 23
-300 0 -165 -4 -257 -13 -295 -22 -90 -55 -210 -100 -355 -17 -55 -38 -127
-47 -160 -9 -33 -21 -71 -26 -85 -6 -13 -13 -63 -16 -110 -5 -78 -3 -88 18
-119 16 -23 36 -37 59 -43 79 -18 130 -38 250 -98 41 -21 103 -47 136 -58 34
-12 88 -35 120 -51 33 -16 99 -46 148 -66 49 -20 96 -41 105 -45 9 -5 50 -24
91 -43 41 -19 86 -45 101 -58 40 -38 136 -108 161 -118 13 -6 40 -12 60 -16
23 -3 63 -26 105 -59 38 -29 107 -78 153 -108 177 -116 481 -428 571 -584 13
-23 40 -66 61 -95 50 -75 68 -122 79 -214 16 -139 32 -215 46 -227 8 -7 63
-25 121 -40 59 -16 121 -32 139 -37 46 -12 115 -47 223 -111 52 -31 120 -71
151 -87 91 -51 307 -219 407 -317 106 -104 160 -171 189 -236 12 -28 47 -72
88 -110 144 -136 370 -388 430 -480 27 -41 68 -97 91 -125 44 -52 84 -118 84
-136 0 -6 6 -25 14 -42 24 -54 36 -99 36 -133 0 -53 9 -63 86 -100 41 -20 124
-68 184 -107 117 -77 200 -130 213 -135 4 -2 7 2323 7 5167 l0 5171 -13990 0
-13990 0 0 -4805z"/>
</g>
</svg>
